<?xml version="1.0" encoding="UTF-8" standalone="no"?> <svg xmlns="http://www.w3.org/2000/svg" xmlns:xlink="http://www.w3.org/1999/xlink" xmlns:serif="http://www.serif.com/" width="100%" height="100%" viewBox="0 0 1220 148" version="1.1" xml:space="preserve" style="fill-rule:evenodd;clip-rule:evenodd;stroke-linejoin:round;stroke-miterlimit:2;"> <g transform="matrix(4.16667,0,0,4.16667,142.104,0)"> <g> <path d="M0,27.3L-34.105,0L34.105,0L0,27.3Z" style="fill:rgb(85,177,227);fill-rule:nonzero;"></path> </g> </g> <g transform="matrix(4.16667,0,0,4.16667,142.104,147.657)"> <g> <path d="M0,-27.3L-34.105,0L34.105,0L0,-27.3Z" style="fill:rgb(85,177,227);"></path> </g> </g> <g transform="matrix(4.16667,0,0,4.16667,373.779,105.98)"> <path d="M0,-15.654L-4.939,-13.374C-5.889,-15.198 -7.409,-16.261 -9.803,-16.261C-13.792,-16.261 -16.072,-12.766 -16.072,-7.827C-16.072,-3.04 -13.754,0.608 -9.765,0.608C-7.371,0.608 -5.965,-0.418 -4.56,-2.774L-0.076,-0.114C-1.9,3.648 -5.091,5.889 -9.917,5.889C-16.87,5.889 -21.543,0.57 -21.543,-7.827C-21.543,-15.92 -16.68,-21.543 -9.727,-21.543C-4.711,-21.543 -1.672,-19.111 0,-15.654" style="fill:rgb(76,76,78);fill-rule:nonzero;"></path> </g> <g transform="matrix(4.16667,0,0,4.16667,473.685,17.9596)"> <path d="M0,26.596L-5.319,26.596L-5.319,15.426L-16.224,15.426L-16.224,26.596L-21.543,26.596L-21.543,0L-16.224,0L-16.224,10.183L-5.319,10.183L-5.319,0L0,0L0,26.596Z" style="fill:rgb(76,76,78);fill-rule:nonzero;"></path> </g> <g transform="matrix(4.16667,0,0,4.16667,548.046,63.7117)"> <path d="M0,4.635L-1.71,-0.19C-2.242,-1.748 -2.774,-3.344 -3.04,-4.332C-3.306,-3.344 -3.838,-1.748 -4.37,-0.19L-6.079,4.635L0,4.635ZM9.763,15.615L3.913,15.615L1.823,9.689L-7.903,9.689L-9.993,15.615L-15.692,15.615L-5.51,-10.98L-0.343,-10.98L9.763,15.615Z" style="fill:rgb(76,76,78);fill-rule:nonzero;"></path> </g> <g transform="matrix(-4.16667,0,0,4.16667,1912.99,-2577.28)"> <rect x="310.152" y="622.858" width="5.318" height="26.596" style="fill:rgb(76,76,78);"></rect> </g> <g transform="matrix(4.16667,0,0,4.16667,729.245,17.9596)"> <path d="M0,26.596L-4.749,26.596L-14.514,12.082C-15.159,11.094 -16.033,9.765 -16.375,9.08C-16.375,10.069 -16.299,13.412 -16.299,14.894L-16.299,26.596L-21.542,26.596L-21.542,0L-16.451,0L-7.028,14.058C-6.383,15.046 -5.509,16.375 -5.167,17.06C-5.167,16.072 -5.243,12.728 -5.243,11.246L-5.243,0L0,0L0,26.596Z" style="fill:rgb(76,76,78);fill-rule:nonzero;"></path> </g> <g transform="matrix(4.16667,0,0,4.16667,809.889,17.9596)"> <path d="M0,26.596L-14.894,26.596L-14.894,0L-13.146,0L-13.146,25L0,25L0,26.596Z" style="fill:rgb(76,76,78);fill-rule:nonzero;"></path> </g> <g transform="matrix(4.16667,0,0,4.16667,887.848,17.9596)"> <path d="M0,26.596L-15.615,26.596L-15.615,0L-0.569,0L-0.569,1.596L-13.867,1.596L-13.867,11.626L-5.812,11.626L-5.812,13.222L-13.867,13.222L-13.867,25L0,25L0,26.596Z" style="fill:rgb(76,76,78);fill-rule:nonzero;"></path> </g> <g transform="matrix(4.16667,0,0,4.16667,971.482,122.126)"> <path d="M0,-23.404L-8.245,-23.404L-8.245,1.596L-9.993,1.596L-9.993,-23.404L-18.237,-23.404L-18.237,-25L0,-25L0,-23.404Z" style="fill:rgb(76,76,78);fill-rule:nonzero;"></path> </g> <g transform="matrix(4.16667,0,0,4.16667,1056.35,122.126)"> <path d="M0,-23.404L-8.245,-23.404L-8.245,1.596L-9.993,1.596L-9.993,-23.404L-18.237,-23.404L-18.237,-25L0,-25L0,-23.404Z" style="fill:rgb(76,76,78);fill-rule:nonzero;"></path> </g> <g transform="matrix(4.16667,0,0,4.16667,1134.07,17.9596)"> <path d="M0,26.596L-15.615,26.596L-15.615,0L-0.569,0L-0.569,1.596L-13.867,1.596L-13.867,11.626L-5.812,11.626L-5.812,13.222L-13.867,13.222L-13.867,25L0,25L0,26.596Z" style="fill:rgb(76,76,78);fill-rule:nonzero;"></path> </g> <g transform="matrix(4.16667,0,0,4.16667,1212.11,98.3812)"> <path d="M0,-12.006C0,-16.11 -2.583,-17.705 -6.877,-17.705L-13.943,-17.705L-13.943,-6.117L-7.333,-6.117C-2.545,-6.117 0,-7.941 0,-12.006M1.748,-12.044C1.748,-7.827 -0.76,-5.434 -4.825,-4.749L1.292,7.295L-0.722,7.295L-6.687,-4.522L-13.943,-4.522L-13.943,7.295L-15.691,7.295L-15.691,-19.301L-6.801,-19.301C-1.861,-19.301 1.748,-17.287 1.748,-12.044" style="fill:rgb(76,76,78);fill-rule:nonzero;"></path> </g> <g transform="matrix(4.16667,0,0,4.16667,144.104,-1.13687e-13)"> <g> <path d="M11.969,17.719L0,27.3L-11.969,17.719L0,8.138L11.969,17.719Z" style="fill:rgb(0,148,212);"></path> </g> </g> </svg> 